<svg width="360" height="108" viewBox="0 0 360 108" fill="none" xmlns="http://www.w3.org/2000/svg">
<path d="M17.9902 26.3C18.3102 26.26 18.8102 26.24 19.4902 26.24H21.0502C23.7302 26.24 26.3502 26.44 28.9102 26.84C30.2302 27.04 31.2502 27.24 31.9702 27.44V36.02C31.3702 35.98 30.3702 35.88 28.9702 35.72C27.0902 35.52 25.4502 35.42 24.0502 35.42C22.4902 35.42 21.2302 35.48 20.2702 35.6C19.3502 35.68 18.5902 35.84 17.9902 36.08V26.3ZM21.0502 68.48C17.0502 68.48 13.8702 68.14 11.5102 67.46C9.19016 66.74 7.43016 65.56 6.23016 63.92C5.07016 62.36 4.27016 60.3 3.83016 57.74C3.43016 55.14 3.23016 51.68 3.23016 47.36C3.23016 43.56 3.37016 40.48 3.65016 38.12C3.97016 35.76 4.53016 33.78 5.33016 32.18C6.17016 30.54 7.39016 29.28 8.99016 28.4C10.6302 27.48 12.7902 26.86 15.4702 26.54V47.36C15.4702 49.6 15.5102 51.76 15.5902 53.84C15.6702 55.44 15.9702 56.64 16.4902 57.44C17.0502 58.24 17.9102 58.74 19.0702 58.94C20.1902 59.18 21.8502 59.3 24.0502 59.3C26.3302 59.3 28.2702 59.2 29.8702 59C30.5102 58.96 31.2902 58.86 32.2102 58.7V67.4C30.2502 67.84 28.0302 68.14 25.5502 68.3C24.1902 68.42 22.6902 68.48 21.0502 68.48ZM61.3317 47.36C61.3317 43.88 61.3117 41.6 61.2717 40.52C61.1917 38.88 60.9717 37.7 60.6117 36.98C60.2517 36.22 59.6717 35.76 58.8717 35.6C58.0717 35.48 56.9317 35.42 55.4517 35.42C53.7317 35.42 52.6117 35.5 52.0917 35.66V26.3C52.4517 26.26 52.9917 26.24 53.7117 26.24H55.4517C59.9317 26.24 63.3917 26.6 65.8317 27.32C68.3117 28 70.1117 29.14 71.2317 30.74C72.2717 32.22 72.9117 34.16 73.1517 36.56C73.4317 38.96 73.5717 42.56 73.5717 47.36C73.5717 51.56 73.4717 54.8 73.2717 57.08C73.1117 59.32 72.6717 61.18 71.9517 62.66C71.1517 64.34 69.9117 65.62 68.2317 66.5C66.5917 67.38 64.2917 67.96 61.3317 68.24V47.36ZM55.4517 68.48C49.6117 68.48 45.4117 67.84 42.8517 66.56C41.5317 65.92 40.4917 65.06 39.7317 63.98C38.9717 62.9 38.4117 61.56 38.0517 59.96C37.7317 58.56 37.5317 56.96 37.4517 55.16C37.3717 53.32 37.3317 50.72 37.3317 47.36C37.3317 43.16 37.4117 39.94 37.5717 37.7C37.7717 35.46 38.2317 33.58 38.9517 32.06C39.7517 30.42 40.9717 29.16 42.6117 28.28C44.2517 27.4 46.5717 26.8 49.5717 26.48V47.36C49.5717 49.72 49.6117 51.98 49.6917 54.14C49.7717 55.78 49.9717 56.98 50.2917 57.74C50.6517 58.5 51.2317 58.94 52.0317 59.06C52.7117 59.22 53.8517 59.3 55.4517 59.3C57.0917 59.3 58.2117 59.24 58.8117 59.12V68.42C58.4517 68.46 57.9117 68.48 57.1917 68.48H55.4517ZM80.3063 28.52V26.72H91.3463L108.626 63.44L106.646 68H98.8463L80.3063 28.52ZM114.206 50.66H113.966L109.946 60.38L104.786 49.34L114.206 26.72H125.606V68H114.206V50.66ZM80.3063 34.46L91.3463 57.98V68H80.3063V34.46ZM133.392 28.52V26.72H144.432L161.712 63.44L159.732 68H151.932L133.392 28.52ZM167.292 50.66H167.052L163.032 60.38L157.872 49.34L167.292 26.72H178.692V68H167.292V50.66ZM133.392 34.46L144.432 57.98V68H133.392V34.46ZM203.278 68.48C199.078 68.48 195.838 68.14 193.558 67.46C191.278 66.78 189.598 65.68 188.518 64.16C187.518 62.76 186.898 60.98 186.658 58.82C186.418 56.66 186.298 53.44 186.298 49.16V26.72H198.298V51.56C198.298 53.04 198.338 54.46 198.418 55.82C198.498 56.9 198.678 57.68 198.958 58.16C199.238 58.64 199.718 58.94 200.398 59.06C200.998 59.22 201.958 59.3 203.278 59.3H204.658C204.978 59.3 205.338 59.26 205.738 59.18V68.42C205.458 68.46 205.058 68.48 204.538 68.48H203.278ZM208.258 26.72H220.258V49.16C220.258 53.08 220.178 56.04 220.018 58.04C219.858 60.04 219.418 61.72 218.698 63.08C217.898 64.64 216.678 65.84 215.038 66.68C213.398 67.52 211.138 68.06 208.258 68.3V26.72ZM227.904 28.4V26.72H239.904L263.064 66.26V68H251.124L227.904 28.4ZM251.664 41.78V26.72H263.064V61.28L251.664 41.78ZM227.904 33.38L239.304 52.88V68H227.904V33.38ZM270.853 26.72H282.853V68H270.853V26.72ZM287.298 26.72H321.078V36.32H287.298V26.72ZM298.158 38.72H310.158V68H298.158V38.72ZM334.581 54.38L334.041 53.18L332.481 50.12L330.981 46.94C330.821 46.66 330.621 46.24 330.381 45.68L327.921 40.58L321.321 26.72H333.561L346.581 54.44V68H334.581V54.38ZM342.321 39.5L347.901 26.72H359.901L355.221 36.44L353.241 40.52L349.461 48.38L347.961 51.5L342.321 39.5Z" fill="#111214"/>
<path d="M11.25 81V76.5H24.75V81H11.25ZM20.25 94.5V90H11.25V85.5H6.75V81H11.25V85.5H20.25V90H24.75V94.5H20.25ZM6.75 99V94.5H20.25V99H6.75ZM47.25 85.5V81H38.25V76.5H47.25V81H51.75V85.5H47.25ZM38.25 99V94.5H33.75V81H38.25V94.5H47.25V99H38.25ZM47.25 94.5V90H51.75V94.5H47.25ZM60.75 99V76.5H65.25V99H60.75ZM74.25 99V76.5H87.75V81H78.75V85.5H87.75V90H78.75V94.5H87.75V99H74.25ZM96.75 99V76.5H101.25V81H105.75V85.5H110.25V90H114.75V76.5H119.25V99H114.75V94.5H110.25V90H105.75V85.5H101.25V99H96.75ZM141.75 85.5V81H132.75V76.5H141.75V81H146.25V85.5H141.75ZM132.75 99V94.5H128.25V81H132.75V94.5H141.75V99H132.75ZM141.75 94.5V90H146.25V94.5H141.75ZM155.25 99V76.5H168.75V81H159.75V85.5H168.75V90H159.75V94.5H168.75V99H155.25ZM195.75 99V76.5H200.25V81H204.75V85.5H209.25V90H204.75V85.5H200.25V99H195.75ZM213.75 99V85.5H209.25V81H213.75V76.5H218.25V99H213.75ZM231.75 99V94.5H227.25V76.5H231.75V94.5H240.75V99H231.75ZM240.75 94.5V76.5H245.25V94.5H240.75ZM258.75 81V76.5H272.25V81H258.75ZM267.75 94.5V90H258.75V85.5H254.25V81H258.75V85.5H267.75V90H272.25V94.5H267.75ZM254.25 99V94.5H267.75V99H254.25ZM281.25 99V76.5H294.75V81H285.75V85.5H294.75V90H285.75V94.5H294.75V99H281.25ZM308.25 99V94.5H303.75V76.5H308.25V94.5H317.25V99H308.25ZM317.25 94.5V76.5H321.75V94.5H317.25ZM330.75 99V76.5H335.25V81H339.75V85.5H344.25V90H339.75V85.5H335.25V99H330.75ZM348.75 99V85.5H344.25V81H348.75V76.5H353.25V99H348.75Z" fill="#111214"/>
</svg>
